<?xml version="1.0" encoding="UTF-8" standalone="no"?>
<!-- Created with Inkscape (http://www.inkscape.org/) -->

<svg
   version="1.1"
   id="svg1"
   width="23229.867"
   height="4234.6665"
   viewBox="0 0 23229.867 4234.6665"
   xmlns="http://www.w3.org/2000/svg"
   xmlnsSvg="http://www.w3.org/2000/svg">
  <defs
     id="defs1" />
  <g
     id="g1">
    <path
       style="fill:#07679f;stroke:none"
       d="m 10797.867,2050.1333 h -1.067 c -0.961,-22.2722 -7.829,-44.9745 -10.501,-67.2 -6.259,-52.0779 -10.957,-105.3375 -8.657,-157.8667 2.222,-50.7526 6.472,-101.1469 14.277,-151.4667 4.437,-28.6065 14.272,-57.6786 16.615,-86.4 h -1.067 c -19.747,37.1019 -42.463,72.6448 -62.1,109.8667 -35.868,67.9849 -67.128,138.7802 -92.895,211.2 -71.584,201.1958 -93.274,416.8817 -47.057,626.1333 10.228,46.3115 22.921,93.6685 40.997,137.6 21.764,52.8953 50.921,103.0474 82.836,150.4 34.472,51.1453 75.326,98.2974 119.819,140.8419 18.459,17.6508 36.968,36.2425 57.6,51.4182 30.596,22.5039 63.328,42.668 94.933,63.7399 12.031,8.0213 32.16,17.113 40.571,28.8995 12.246,17.1604 20.841,38.108 31.346,56.4338 21.944,38.2805 44.594,76.2227 68.886,113.0667 86.94,131.8575 187.648,255.544 301.864,364.758 334.172,319.5391 774.272,533.905 1236.267,580.1284 178.018,17.8109 354.768,15.7531 532.266,-7.587 690.391,-90.7825 1307.267,-549.7627 1609.324,-1174.0994 69.699,-144.0646 124.223,-296.9724 158.758,-453.3333 12.185,-55.1735 22.274,-110.5711 30.933,-166.4 2.528,-16.299 4.153,-32.7308 6.4,-49.0667 0.775,-5.6359 0.07,-14.2338 3.377,-19.0148 8.631,-12.469 27.844,-21.9789 39.742,-31.3433 30.031,-23.6351 60.132,-47.1695 89.6,-71.5086 89.641,-74.0397 175.236,-152.0195 259.2,-232.3085 69.769,-66.7167 134.908,-139.037 197.786,-212.2248 183.944,-214.1041 336.657,-453.2518 423.014,-723.1999 -11.465,6.7367 -20.831,25.6588 -28.923,36.2666 -20.617,27.0224 -41.718,53.7117 -63.264,80 -74.221,90.5599 -149.438,180.8865 -227.995,267.7333 -55.435,61.2855 -116.719,118.6664 -177.952,174.0477 -157.833,142.7508 -324.905,273.3164 -501.333,392.3523 0,-86.9122 -12.378,-175.6104 -26.581,-261.3333 -31.186,-188.2128 -87.312,-373.5273 -168.852,-546.1333 -111.024,-235.01511 -261.688,-451.44869 -449.9,-631.42473 -186.485,-178.32369 -403.676,-322.82551 -641.067,-424.11925 -540.95,-230.82187 -1172.773,-224.397391 -1707.733,21.20651 -239.65,110.02499 -452.677,262.48072 -638.934,448.73748 -188.301,188.30155 -336.062,419.55779 -438.853,664.53329 -73.175,174.3938 -123.342,360.4096 -145.846,548.2667 -7.858,65.6007 -15.834,132.3234 -15.834,198.4 m 1036.8,-344.5334 c -0.807,7.8802 -5.912,14.5914 -9.76,21.3334 -10.937,19.1578 -33.334,47.9494 -25.669,71.4666 4.036,12.3852 17.355,19.4253 29.029,23.0024 21.791,6.6771 52.191,6.0963 70.3,21.2955 16.04,13.4625 9.093,43.2045 8.649,61.3021 -1.097,44.7821 1.422,85.7638 46.918,108.512 47.036,23.5185 111.199,21.5961 150.384,-15.8073 24.728,-23.6034 38.765,-57.2581 69.349,-74.707 46.348,-26.4425 115.654,-10.7844 161.067,10.0648 39.99,18.3599 64.544,49.3047 85.004,87.1375 15.532,28.7232 27.772,66.1828 58.996,81.8452 23.515,11.7961 51.711,8.1816 76.8,4.6939 45.148,-6.2765 94.825,-16.5405 133.333,14.586 32.705,26.436 52.859,67.7921 71.202,104.7416 7.25,14.6036 12.684,37.0969 24.094,48.8271 9.033,9.288 29.311,13.389 41.237,18.1599 49.4,19.7606 102.886,42.6099 156.8,44.971 42.378,1.856 83.744,-11.3606 125.867,-9.5161 32.972,1.444 66.008,13.3768 92.8,32.5763 12.028,8.6198 23.207,18.8594 31.255,31.3818 15.82,24.6161 3.769,46.9799 -13.036,67.2 -25.808,31.0502 -57.229,59.513 -73.834,97.0666 -26.743,60.4881 -1.985,124.0224 -1.985,186.6667 54.182,-15.2328 110.529,-25.2659 165.333,-38.2766 92.138,-21.8739 183.477,-48.2479 274.134,-75.558 67.038,-20.1956 134.77,-40.2435 200.533,-64.3555 116.507,-42.7172 231.479,-92.663 345.6,-141.3604 76.326,-32.5693 152.19,-66.0971 228.267,-99.1969 19.735,-8.5862 39.416,-17.7578 58.666,-27.3828 5.112,-2.5557 17.576,-6.1458 19.917,-11.6969 1.39,-3.2976 -0.848,-8.2156 -1.559,-11.5062 -2.534,-11.7149 -6.586,-22.0831 -13.395,-32 -22.637,-32.9643 -69.421,-62.6074 -108.429,-71.8354 -22.642,-5.3563 -43.619,0.2649 -66.134,3.4297 -33.638,4.7283 -67.423,9.2787 -101.333,10.7638 -108.748,4.7622 -221.69,-70.6693 -268.524,-167.4248 -16.94,-34.9948 -20.69,-69.5523 -21.625,-107.7333 -0.95,-38.7635 1.496,-75.0391 28.998,-105.6 13.565,-15.0734 29.718,-26.9479 47.818,-36.0034 5.94,-2.9721 23.484,-7.6185 26.452,-13.4831 1.499,-2.9622 -0.66,-7.3406 -1.467,-10.2468 -2.465,-8.8696 -4.928,-17.7584 -7.248,-26.6667 -7.832,-30.0766 -16.74,-53.5984 1.558,-82.1333 7.719,-12.0367 19.562,-20.4782 30.838,-28.9349 23.368,-17.5258 48.555,-32.4209 74.667,-45.4685 10.1,-5.0469 22.743,-8.4203 31.889,-14.9992 10.108,-7.2703 17.428,-25.9206 24.029,-36.4641 17.188,-27.4536 38.249,-65.0953 66.748,-82.0338 39.599,-23.536 94.506,-24.8308 138.667,-18.5217 68.518,9.7888 131.825,33.7279 195.2,60.9284 26.112,11.2073 52.009,26.9578 78.933,35.7891 14.284,4.6849 30.111,6.3979 44.8,9.6239 34.56,7.5901 69.136,15.0995 103.467,23.6823 18.969,4.7422 43.048,8.03 59.733,18.6732 53.673,34.2373 32.153,112.018 62.366,160.9253 5.195,8.4093 13.871,13.4914 21.901,18.8445 20.32,13.5469 41.225,21.0333 65.067,25.9555 9.14,71.9864 18.913,143.2711 25.781,215.4666 1.825,19.1813 1.8,38.399 3.115,57.6 0.595,8.7016 3.805,22.4481 0.327,30.7366 -2.327,5.5455 -11.569,9.3436 -16.423,12.3828 -13.94,8.7287 -27.684,17.7828 -41.6,26.5538 -55.176,34.7755 -111.236,67.9797 -167.467,101.0049 -60.599,35.5901 -122.756,68.2401 -184.533,101.6511 -39.894,21.576 -78.53,44.6541 -119.467,64.4617 -137.786,66.6674 -280.285,125.838 -422.4,182.6758 -70.382,28.1489 -139.789,60.2229 -211.2,85.6617 -133.485,47.5515 -270.459,87.2583 -407.467,123.2815 -319.916,84.1156 -649.478,141.3695 -980.266,149.4724 -141.765,3.4724 -282.562,-1.8209 -423.467,-16.9052 -83.337,-8.9219 -167.165,-21.0365 -248.533,-41.3787 -263.326,-65.8317 -534.148,-167.6125 -729.6,-363.0651 -52.335,-52.3341 -98.073,-110.5177 -134.7,-174.9333 -12.844,-22.5885 -28.525,-47.6036 -36.209,-72.5333 -7.259,-23.5557 -2.45,-52.3852 -4.121,-76.8 -4.15,-60.6406 -0.749,-122.9672 3.392,-183.4667 1.765,-25.776 6.287,-52.0359 6.304,-77.8666 h 1.067 c 0,55.17 12.229,111.6705 24.081,165.3333 12.856,58.2061 31.64,115.1323 58.341,168.5333 130.979,261.9573 408.36,405.5302 675.978,491.0338 63.302,20.2248 127.943,39.474 193.067,52.9631 64.786,13.4185 130.626,22.1807 196.266,30.0354 89.166,10.6693 180.09,17.9677 269.867,17.9677 -10.891,-39.8167 -41.412,-75.7396 -71.467,-102.5771 -47.192,-42.1404 -103.324,-71.8364 -156.8,-104.9703 -35.273,-21.8547 -71.833,-45.8628 -97.175,-79.3859 -59.6,-78.8427 -31.833,-194.0893 -15.239,-282.6667 5.772,-30.8094 14.281,-62.3656 14.281,-93.8667 0,-14.9161 -1.448,-30.1097 -10.441,-42.6666 -12.693,-17.7245 -34.36,-22.169 -54.626,-24.8337 -23.521,-3.0927 -48.247,-5.6675 -69.333,-17.3959 -27.99,-15.5679 -49.663,-40.5246 -71.508,-63.3704 -35.075,-36.6805 -72.463,-73.1154 -119.425,-94.0149 -50.418,-22.4372 -106.506,-25.0072 -160,-35.2617 -27.301,-5.2333 -58.527,-10.6685 -80,-29.8419 -40.326,-36.007 -35.231,-105.5003 -37.375,-154.4815 -1.523,-34.7805 -2.976,-71.3029 -14.567,-104.5333 -12.281,-35.2115 -35.21,-64.5222 -63.258,-88.6724 -11.63,-10.0125 -23.787,-19.2899 -36.267,-28.2115 -5.018,-3.5872 -10.88,-9.3565 -17.067,-10.6495 -6.523,-1.3632 -12.774,4.8125 -12.34,11.2667 0.897,13.3703 10.216,30.0729 14.926,42.6667 15.796,42.2427 35.888,107.4073 -12.186,136.05 -6.932,4.1304 -14.576,6.9927 -22.4,8.8776 -10.338,2.4906 -20.476,2.8929 -30.933,0.9276 -49.889,-9.3763 -44.895,-66.3245 -49.371,-104.2552 -8.757,-74.2104 6.12,-168.4128 -70.096,-213.7555 -10.846,-6.4523 -22.881,-11.6614 -35.2,-14.5112 31.667,-81.6586 71.655,-160.4221 114.283,-236.8 238.221,-426.84032 629.162,-753.60359 1085.717,-924.34734 50.275,-18.80182 101.791,-35.64895 153.6,-49.68072 19.966,-5.40756 42.254,-15.12683 62.934,-16.52657 10.889,-0.73697 27.414,17.91719 36.266,23.9474 25.834,17.59818 54.226,30.65547 84.267,39.21797 79.869,22.76536 163.85,11.94739 244.267,29.70859 55.184,12.18828 100.718,50.72291 110.843,108.34739 3.285,18.69271 5.58,47.44635 -10.677,61.31354 -13.535,11.54557 -35.999,9.17917 -52.166,5.88229 -50.771,-10.35312 -94.386,-39.10807 -138.667,-64.29531 -15.606,-8.87708 -34.706,-18.98411 -53.333,-16.31041 -29.861,4.28593 -51.455,28.42708 -70.581,49.67656 -32.243,35.82421 -60.905,76.43229 -99.019,106.44192 -49.287,38.80599 -105.466,8.71614 -161.067,19.9039 -60.093,12.09141 -109.75,59.94662 -153.6,99.60651 -18.087,16.35781 -36.085,33.07344 -53.333,50.31432 -4.94,4.93802 -16.016,12.45469 -15.657,20.26667 0.431,9.35156 10.602,10.79635 17.79,11.99661 20.467,3.41771 40.744,7.37058 59.733,16.06589 45.98,21.05364 63.613,67.76067 97.083,102.07083 19.443,19.93151 42.366,34.12395 70.384,23.39739 39.849,-15.25625 68.368,-61.06588 94.32,-92.73072 51.201,-62.47266 105.327,-144.25599 193.68,-150.30469 26.207,-1.79427 52.824,4.04297 77.867,11.18855 16.331,4.65989 32.093,10.90182 48,16.78932 6.906,2.55651 17.681,4.86484 23.127,9.95234 6.578,6.14557 2.141,28.11458 2.514,36.64115 1.124,25.68203 1.442,63.5802 22.363,81.93254 32.433,28.45131 83.76,-36.92317 108.15,10.86745 3.109,6.09271 4.907,12.50469 6.187,19.2 9.778,51.13177 -46.372,90.56406 -93.008,87.37135 -22.492,-1.53984 -49.195,-14.61953 -71.467,-8.51458 -28.91,7.92448 -19.537,53.24453 -44.8,67.97109 -18.634,10.86276 -45.178,10.79609 -66.133,13.3375 -35.645,4.32292 -75.432,14.31823 -102.4,39.39661 -32.375,30.10625 -44.955,70.75676 -57.301,111.90466 -20.546,68.4753 -34.842,148.4203 -86.715,201.6 -54.682,56.0602 -133.126,79.3349 -204.784,105.5432 -43.826,16.0292 -92.757,33.2081 -123.238,70.4568 -24.894,30.4229 -31.282,72.7568 -30.346,110.9333 0.339,13.8654 1.212,27.662 1.046,41.6 -0.06,5.0308 -0.24,12.987 -4.559,16.423 -5.717,4.5487 -16.302,0.3786 -22.103,-1.973 -18.57,-7.5281 -36.018,-21.8398 -50.133,-35.7875 -50.26,-49.6622 -81.441,-133.7364 -165.334,-124.6187 -33.904,3.6849 -67.585,18.7253 -97.066,35.1719 -52.184,29.1109 -104.145,65.8984 -139.277,115.051 -27.009,37.7865 -39.62,88.8224 -5.605,126.9333 7.024,7.8693 15.294,14.3969 24.348,19.7834 58.412,34.7492 135.013,10.7458 194.134,-9.8584 22.226,-7.7461 48.9,-21.6453 72.533,-22.725 M 15843.2,627.19998 l 88.534,22.52343 146.133,37.37136 84.267,21.17187 c -6.554,22.74088 -23.594,45.33073 -34.871,66.13333 -25.281,46.6375 -50.481,93.3414 -76.211,139.73333 -9.415,16.9763 -18.713,34.05677 -27.819,51.2 -3.743,7.04531 -7.684,18.88854 -14.037,23.88958 -4.757,3.74453 -17.137,0.64375 -23.062,0.64375 -21.473,0 -43.681,-2.91172 -65.051,-1.00417 -8.265,0.73776 -16.687,13.24974 -21.801,19.13754 -12.045,13.8664 -25.045,27.4653 -37.952,40.5333 -6.388,6.4674 -16.694,14.5575 -19.196,23.4667 46.351,0 93.507,2.0734 139.733,5.238 11.178,0.7653 22.956,1.1073 34.133,1.1612 4.658,0.022 11.575,-1.3026 15.506,1.7112 9.79,7.5083 16.988,22.5492 24.36,32.4229 19.504,26.1216 38.729,52.5044 57.816,78.9333 7.558,10.4664 19.806,35.8425 32.452,39.4667 3.518,-26.132 11.729,-52.0888 17.29,-77.8667 1.919,-8.8942 8.158,-23.0669 5.625,-32 -1.839,-6.4885 -8.071,-12.706 -11.938,-18.1333 -8.588,-12.0521 -17.126,-24.1432 -25.612,-36.2667 -3.591,-5.132 -12.714,-13.7047 -12.534,-20.2666 0.148,-5.3862 5.258,-12.4438 7.821,-17.0667 6.233,-11.2448 11.836,-22.8237 17.952,-34.13334 21.675,-40.08255 42.504,-80.90312 62.998,-121.59999 14.22,-28.23672 28.632,-56.46016 43.669,-84.26667 2.42,-4.47578 9.453,-25.38906 15.373,-24.61718 5.675,0.73984 12.819,10.07994 16.956,13.77343 13.5,12.05495 26.928,24.20651 40.533,36.14011 44.757,39.25859 88.925,79.2263 133.333,118.88072 12.796,11.42578 25.502,22.94687 38.4,34.2599 5.503,4.82682 10.933,11.54687 18.134,13.56302 8.435,-32.60703 15.966,-65.45834 24.135,-98.13333 2.425,-9.70157 11.231,-28.76146 8.102,-38.4 -2.243,-6.90912 -9.644,-13.57865 -14.101,-19.2 -10.075,-12.70599 -19.849,-25.65026 -29.87,-38.4 -33.413,-42.51224 -66.419,-85.34661 -99.652,-128 -10.523,-13.50546 -20.967,-27.07239 -31.548,-40.53333 -3.835,-4.88021 -11.895,-11.97031 -13.159,-18.13333 -1.372,-6.69245 7.79,-17.73281 10.75,-23.46667 10.87,-21.05494 22.481,-41.73801 33.079,-62.93333 32.153,-64.30572 74.457,-132.05468 83.16,-204.79999 0.998,-8.3513 0.4,-17.19479 0.3,-25.6 -0.113,-9.4987 -3.077,-28.64583 -12.08,-34.10364 -8.951,-5.42656 -27.588,2.34088 -35.916,6.2526 -29.093,13.66589 -50.132,41.47943 -67.903,67.31771 -17.5,25.4427 -32.908,52.13593 -48.204,78.93333 -17.897,31.35651 -34.928,63.18203 -52.097,94.93333 -6.672,12.3375 -12.752,33.87682 -23.406,43.0888 -4.477,3.87161 -19.265,0.55 -24.924,-0.11771 -21.803,-2.57318 -44.218,-2.97552 -66.133,-4.47578 -51.539,-3.52839 -103.129,-6.26224 -154.667,-9.79063 -15.647,-1.07109 -31.257,-2.45963 -46.933,-3.14661 -5.437,-0.23828 -11.739,-2.34557 -17.067,-0.38099 -6.591,2.43047 -11.326,10.44088 -16,15.35625 -12.509,13.15443 -24.302,27.04062 -36.447,40.53333 -9.618,10.68672 -19.421,21.20625 -28.923,32 -4.664,5.29714 -10.362,9.76927 -11.43,17.06667 M 14148.267,461.86665 c 82.679,59.39349 161.049,128.19348 232.529,200.53332 69.768,70.60677 133.917,146.72239 193.469,226.13333 15.199,20.26745 29.597,41.10625 44.103,61.86666 5.213,7.46042 16.3,18.6125 17.745,27.73334 0.896,5.65677 -5.977,12.68359 -8.914,17.06666 -10.463,15.61854 -22.443,29.81254 -35.017,43.73334 -29.833,33.0276 -66.788,59.1904 -105.782,80.3292 -30.06,16.2961 -65.309,29.921 -100.266,23.3466 -61.03,-11.4779 -91.19,-75.4448 -131.216,-116.4758 -46.905,-48.0836 -114.624,-81.58073 -179.184,-99.47162 -24.111,-6.68151 -52.048,-9.82474 -76.8,-5.66406 -18.551,3.11823 -35.988,12.86224 -53.334,19.80234 -36.102,14.44479 -71.886,30.00677 -108.8,42.3112 -26.674,8.89141 -69.637,13.85443 -76.304,-23.1112 -3.357,-18.61614 2.683,-40.43697 6.33,-58.66666 7.608,-38.02786 27.514,-71.8276 52.105,-101.33333 9.237,-11.08333 18.897,-23.07396 30.669,-31.54323 53.171,-38.25312 118.214,-53.9013 174.934,-85.05599 27.711,-15.22109 47.32,-42.11301 73.6,-59.1414 17.043,-11.04427 35.695,-19.90338 53.333,-29.96562 6.892,-3.93177 16.56,-7.31459 21.983,-13.1875 11.329,-12.27031 3.609,-26.98386 -2.519,-39.23958 -9.038,-18.07526 -18.638,-36.46797 -22.386,-56.53334 -1.304,-6.98515 -3.096,-16.7526 -0.278,-23.46666 M 1653.3334,1309.8666 v 87.4667 c 73.0649,0 179.0238,-2.2966 216.2575,74.6666 16.594,34.3006 13.8538,72.0446 16.3713,108.8 5.2398,76.5026 0.9712,154.7362 0.9712,231.4667 v 699.7333 c 0,56.887 -0.7921,113.8693 -1.0659,170.6667 -0.2448,50.7778 0.025,108.1192 -23.2634,154.6666 -36.7422,73.438 -139.672,67.6906 -209.2707,68.2667 v 86.4 h 768 v -86.4 c -45.3763,0 -91.7664,-1.0589 -136.5333,-9.1474 -24.3196,-4.3943 -50.7378,-12.2524 -69.3334,-29.3521 -48.8163,-44.8901 -41.4234,-111.8385 -47.1144,-171.6338 -4.9961,-52.4943 -0.8856,-107.2354 -0.8856,-160 v -306.1334 c 53.0172,0 119.8787,-10.0455 168.5334,15.4519 36.3533,19.0508 59.7411,55.3872 81.1234,89.0815 17.7143,27.914 36.112,55.406 54.0148,83.2 83.7727,130.0567 168.7355,259.327 250.9414,390.4 27.4764,43.8096 55.4618,87.3031 82.8019,131.2 7.5492,12.121 15.2109,24.169 22.7982,36.2666 2.9734,4.7412 6.2742,12.9438 11.1244,15.9703 4.9292,3.0761 15.2831,1.0964 20.9292,1.0964 h 53.3333 198.4 740.2667 v -86.4 c -30.781,-0.02 -62.381,-1.2386 -92.8,-6.3143 -18.0862,-3.018 -37.7627,-7.9982 -52.2667,-19.7847 -27.4445,-22.3021 -28.5765,-57.7625 -24.6986,-90.1677 7.832,-65.4463 37.0244,-126.7586 62.7992,-186.6666 17.9784,-41.7875 35.8255,-83.7381 52.989,-125.8667 4.475,-10.9838 10.2347,-38.1344 24.1105,-38.395 151.7005,-2.8498 303.7356,-0.01 455.4666,-0.01 h 122.6667 33.0667 c 4.0536,0 10.0062,-1.0555 13.6385,1.0964 3.7698,2.233 5.1641,7.9187 6.7885,11.7036 4.1125,9.582 8.2823,19.1435 12.2167,28.8 14.2761,35.0393 29.4672,69.7922 44.4557,104.5333 7.1948,16.6766 14.1428,33.4542 21.3334,50.1334 6.2135,14.4135 12.05,29.0119 17.4937,43.7333 3.9256,10.6154 7.7865,21.2607 11.3625,32 18.761,56.3448 44.0599,139.1713 -21.689,174.6031 -11.1162,5.9906 -23.9698,9.9615 -36.2667,12.6776 -29.3526,6.4834 -59.7057,7.3029 -89.6,7.9193 v 86.4 h 729.6 v -86.4 c -11.4807,-2.1313 -23.5536,-1.1445 -35.2,-2.3136 -25.2193,-2.5312 -51.2417,-9.396 -73.6,-21.4822 -47.0536,-25.4362 -79.4297,-69.2839 -105.4396,-114.8709 -38.7182,-67.8604 -67.0666,-141.6 -97.6765,-213.3333 -125.8547,-294.9367 -252.9792,-589.3289 -378.8344,-884.2666 -39.4656,-92.4865 -79.0292,-184.9292 -118.6891,-277.3334 l -30.1875,-70.4 c -2.5135,-5.8559 -5.95,-21.044 -11.9893,-23.8895 -8.1901,-3.8591 -24.6787,-0.6438 -33.7169,-0.6438 h -84.2667 c -8.1586,0 -30.437,-3.8846 -36.6412,1.7104 -6.9375,6.2565 -10.3432,22.7735 -13.9447,31.3563 -11.0459,26.3237 -22.487,52.4956 -33.2579,78.9333 -35.9364,88.2076 -73.414,175.9734 -111.0567,263.4667 -73.0232,169.7281 -143.6584,340.5544 -215.1521,510.9333 -58.8068,140.1442 -119.7365,279.501 -177.037,420.2666 -26.5474,65.217 -53.513,131.4904 -89.8175,192 -21.2411,35.4031 -47.9781,70.9016 -85.7596,89.8042 -51.3828,25.7073 -118.3893,22.5726 -173.8667,15.4911 -41.2257,-5.2619 -80.7007,-19.3479 -114.1333,-44.3833 -48.9654,-36.6672 -81.8888,-90.6359 -116.7193,-139.8453 -87.2354,-123.2479 -173.6039,-247.1943 -264.2156,-368 -34.4005,-45.8635 -70.6797,-91.1888 -112.9318,-130.0419 -9.958,-9.157 -20.757,-17.7805 -32,-25.3128 -4.4724,-2.9963 -10.6307,-6.5377 -7.8888,-13.0247 2.0414,-4.8298 10.9078,-5.3069 15.3555,-6.4189 15.3724,-3.8431 30.6555,-7.8766 45.8667,-12.3211 57.6872,-16.8553 113.6666,-39.7884 165.3333,-70.5916 56.0776,-33.433 106.4607,-79.7627 140.3201,-135.889 71.7276,-118.8979 78.9953,-286.9435 15.1375,-410.6666 -69.2521,-134.175 -228.4365,-194.9253 -369.8576,-215.7563 -143.5578,-21.1458 -287.1162,-18.9104 -432,-18.9104 h -515.2 M 0,1785.5999 h 94.933335 c 3.87439,-30.0018 11.743455,-60.1349 18.505355,-89.6 16.9085,-73.6789 37.88823,-158.1882 99.89465,-207.52 41.92786,-33.3576 96.1542,-45.2115 148.26667,-50.7904 83.55941,-8.9455 168.75238,-5.1562 252.8,-5.1562 v 983.4666 179.2 c 0,34.7552 1.40092,69.8943 -0.97122,104.5333 -3.09967,45.263 -1.65664,95.2482 -23.89219,136.5334 -35.39505,65.7187 -121.54395,68.2666 -187.40326,68.2666 -12.85527,0 -25.58646,1.0667 -38.4,1.0667 v 86.4 H 1148.8 v -86.4 c -48.003,0 -99.2462,0.3323 -146.1333,-11.3349 -25.4948,-6.3443 -50.83706,-17.7682 -67.55639,-38.7984 -23.5905,-29.6735 -29.23522,-69.0435 -32.89056,-105.6 -6.38887,-63.8943 -4.0864,-128.8235 -4.0864,-193.0667 v -732.8 -284.8 -75.7333 c 0,-7.0708 -2.90162,-22.4698 1.09629,-28.4609 2.31654,-3.4714 8.1403,-2.4722 11.70371,-2.4724 h 30.93334 c 43.92663,0 88.48041,-2.0263 132.26671,0.9713 68.033,4.6576 138.1432,3.8716 199.4666,38.9513 77.5021,44.3344 102.2663,137.1789 121.4766,218.2107 7.393,31.1849 16.1111,63.1578 20.3901,94.9333 H 1510.4 l -5.2914,-113.0666 -9.6838,-237.8667 -5.2914,-124.8 H 407.46668 128 55.466668 c -6.033985,0 -21.173186,-2.7448 -26.023048,1.0964 -4.764589,3.7737 -2.55626,24.9052 -2.818929,30.9036 -1.308408,29.88 -4.024308,59.706 -5.333333,89.6 C 16.124604,1549.4593 2.4370237,1667.5283 0,1785.5999 m 4862.9334,-475.7333 v 87.4667 c 40.4209,0 81.7058,4.4479 118.4,22.795 43.1542,21.5771 74.1985,60.3352 98.5594,100.9383 33.5328,55.8904 58.761,116.1732 84.2901,176 86.0141,201.5719 173.2146,402.6793 260.4313,603.7333 50.0625,115.4057 97.7693,231.9836 149.4599,346.6667 38.4713,85.3544 74.6172,171.976 111.2594,258.1333 9.9994,23.5125 20.2875,46.8987 30.3161,70.4 2.9984,7.0271 6.7823,23.2323 13.0427,27.7036 6.4583,4.6131 25.5865,1.0964 33.4412,1.0964 30.913,0 61.889,0.5833 92.7958,-0.01 9.9443,-0.1893 12.1797,-13.5211 15.3604,-21.3283 9.586,-23.5282 19.3292,-47.0258 29.2844,-70.4 42.5568,-99.9219 82.3656,-201.0235 125.2588,-300.8 132.8365,-309 255.4672,-622.3667 388.7344,-931.2 27.4979,-63.7229 55.5636,-129.8008 94.1662,-187.7333 20.3422,-30.5281 44.3437,-60.7102 77.8666,-77.4716 33.4318,-16.7159 71.1178,-18.5284 107.7334,-18.5284 v -87.4667 h -550.4 v 87.4667 c 38.5859,0 80.8422,-0.3568 117.3333,14.0838 20.9656,8.2969 40.1245,22.3597 47.4464,44.5828 8.963,27.2042 3.4671,60.3386 -3.3146,87.4667 -14.5063,58.0255 -41.5719,114.1383 -63.7578,169.6 -81.2469,203.1055 -160.6954,406.9331 -241.7073,610.1333 -31.5256,79.074 -57.2552,160.0828 -86.4568,240 -6.8474,18.7401 -13.5432,37.6049 -19.8542,56.5333 -2.4953,7.4844 -3.6963,17.0568 -13.1567,17.0568 -9.8537,0 -11.1438,-9.3586 -14.0709,-17.0568 -7.0224,-18.4685 -13.7896,-37.0422 -20.9265,-55.4666 -30.9938,-80.0115 -60.6162,-160.4589 -92.7875,-240 -78.8412,-194.9296 -161.4355,-388.5076 -242.8,-582.4 -24.1339,-57.5112 -51.137,-114.8466 -68.2636,-174.9333 -8.5463,-29.9844 -16.2427,-62.8203 -9.5109,-93.8667 16.2307,-74.8518 110.6234,-75.7333 171.0271,-75.7333 v -87.4667 h -739.2001 m 1895.4668,0 v 87.4667 c 74.4421,0 180.8109,-3.193 219.7661,74.6666 22.5214,45.0136 21.7891,99.2401 22.3714,148.2667 0.6916,58.2336 1.0625,116.6138 1.0625,174.9333 v 705.0667 c 0,64.3625 -0.299,128.7909 -1.0625,193.0666 -0.5787,48.6948 -0.7339,102.2146 -24.8698,146.1334 -33.7683,61.4463 -119.1459,65.0666 -181.0011,65.0666 -12.1333,0 -24.1989,0.9667 -36.2666,1.0667 v 86.4 h 1397.3333 c 1.8057,-42.0365 11.8406,-85.2662 17.8443,-126.9333 11.6781,-81.0513 23.0333,-162.149 34.7114,-243.2 5.3141,-36.8831 14.9412,-75.8318 15.711,-113.0667 h -68.2667 c -6.2125,0 -19.8463,-2.562 -25.0557,1.0964 -6.1214,4.2979 -9.0328,22.7942 -11.0604,29.8369 -7.0667,24.5464 -16.549,48.5888 -25.4104,72.5334 -25.6105,69.2026 -59.3625,139.7632 -119.8068,185.0929 -52.0396,39.0263 -117.1662,52.3206 -180.2667,60.5409 -113.1036,14.7339 -229.4958,9.2995 -343.4667,9.2995 h -123.7333 -30.9333 c -3.5261,0 -9.3995,1.0463 -12.1563,-1.7104 -3.8677,-3.8677 -1.7104,-15.6104 -1.7104,-20.6896 v -59.7333 -236.8 -276.2667 -66.1333 c 0,-5.2039 -2.4516,-19.0849 2.4724,-22.3705 3.574,-2.3847 10.4953,-1.0962 14.5943,-1.0962 h 35.2 134.4 c 77.1536,0 156.038,-3.3362 232.5333,7.3276 41.3214,5.7604 84.4906,17.7656 109.963,53.4724 34.8193,48.8091 31.9037,121.0417 31.9037,178.1333 h 94.9333 v -594.1333 h -94.9333 c 0,59.5302 2.5562,137.3781 -38.7198,185.6 -37.0235,43.2538 -97.0547,49.514 -150.0802,54.5811 -49.1099,4.693 -98.9011,3.0189 -148.2667,3.0189 h -224 v -470.4 -117.3333 -29.8667 c 5e-4,-3.3075 -0.8776,-8.5018 1.7104,-11.0895 3.211,-3.211 11.2177,-1.7105 15.3563,-1.7105 h 43.7333 172.8 c 101.4328,0 205.8203,-5.5369 306.1333,11.2922 53.8349,9.0315 108.5636,26.4042 146.5818,67.7365 53.2026,57.8398 69.9459,148.3409 79.5516,223.9047 h 97.0666 l -14.9333,-433.0667 H 6758.4002 m 1640.5333,0 v 87.4667 c 76.1646,0 176.5203,0.1432 213.0011,81.0666 20.4416,45.3443 19.5125,100.6664 19.5323,149.3334 0.024,58.5609 1.0666,117.3461 1.0666,176 v 691.1999 c 0,63.631 -1.0614,127.3953 -1.0666,190.9334 0,50.5364 0.7463,107.7367 -23.5943,153.6 -38.2307,72.0356 -142.4547,63.1859 -211.0724,66.1333 v 86.4 h 1331.2 c 0.9084,-43.9287 12.6406,-89.8266 18.9115,-133.3333 l 36.8437,-254.9334 c 5.9073,-40.9877 14.5927,-82.4599 17.8448,-123.7333 h -70.4 c -6.1927,0 -20.8448,-2.7088 -25.9177,1.0964 -5.2083,3.9062 -7.3625,19.4203 -9.1323,25.5703 -6.1854,21.4937 -13.4489,42.8677 -20.7833,64 -23.099,66.551 -48.3281,137.763 -94.8719,192 -108.0865,125.9526 -298.176,106.6666 -447.6948,106.6666 -40.2031,0 -80.7771,0.7099 -120.5333,-5.9588 -21.7063,-3.6412 -44.2761,-9.7159 -61.8667,-23.5547 -36.2281,-28.5013 -37.3333,-79.8891 -37.3333,-121.9531 v -279.4667 -682.6666 c 0,-60.4802 -1.3073,-121.0891 3.1052,-181.3334 2.8375,-38.7468 10.0219,-80.775 33.0656,-113.0666 46.2667,-64.8341 143.1917,-64 214.4958,-64 v -87.4667 h -764.8 M 16793.6,1785.5999 h 94.934 c 3.873,-30.0013 11.74,-60.1362 18.505,-89.6 16.915,-73.6799 37.884,-158.1854 99.895,-207.52 41.928,-33.3581 96.154,-45.2115 148.266,-50.7904 83.56,-8.9455 168.752,-5.1562 252.8,-5.1562 v 982.3999 179.2 c 0,35.1078 1.424,70.6089 -0.97,105.6 -3.098,45.2641 -1.661,95.2469 -23.893,136.5334 -35.39,65.7197 -121.548,68.2666 -187.403,68.2666 -12.855,0 -25.587,1.0667 -38.4,1.0667 v 86.4 h 785.066 v -86.4 c -43.61,0 -88.089,-1.0714 -131.2,-8.2698 -30.173,-5.0385 -61.641,-16.505 -81.639,-40.7969 -24.365,-29.5948 -30.056,-69.7958 -33.742,-106.6666 -6.281,-62.8451 -4.085,-126.6787 -4.085,-189.8667 v -736 -284.8 -75.7333 c 0,-7.0698 -2.902,-22.4706 1.096,-28.4609 2.316,-3.4711 8.141,-2.4722 11.704,-2.4724 h 30.933 c 43.927,0 88.481,-2.0263 132.267,0.9713 68.033,4.6576 138.143,3.8716 199.466,38.9513 77.498,44.3318 102.275,137.1802 121.477,218.2107 7.392,31.1883 16.103,63.1562 20.39,94.9333 H 18304 l -4.225,-88.5333 -9.683,-237.8667 -6.358,-149.3333 H 17200 h -279.466 -71.467 c -6.034,0 -21.173,-2.7448 -26.023,1.0964 -4.765,3.7742 -2.556,24.9049 -2.819,30.9036 -1.308,29.88 -4.025,59.7063 -5.333,89.6 -5.166,117.9932 -18.851,236.0615 -21.292,354.1333 M 18432,1309.8666 v 87.4667 c 75.071,0 184.88,-2.1336 224.79,75.7333 23.027,44.9271 22.677,101.1583 22.677,150.4 0,57.5122 1.067,115.2003 1.067,172.8 v 706.1333 c 0,72.3021 2.889,145.5339 -2.038,217.6 -2.721,39.8164 -3.033,82.3409 -22.829,118.4 -34.314,62.5062 -122.298,66.1333 -185.267,66.1333 -12.845,0 -25.61,1.0654 -38.4,1.0667 v 86.4 h 772.267 v -86.4 c -12.442,0 -24.839,-1.0667 -37.333,-1.0667 -61.69,0 -147.404,-3.926 -181,-65.0666 -19.098,-34.7584 -20.198,-75.643 -22.829,-114.1334 -5.048,-73.8562 -2.038,-148.8359 -2.038,-222.9333 v -709.3333 c 0,-61.5187 0.323,-123.1008 1.063,-184.5333 0.535,-44.4706 0.15,-94.6505 20.558,-135.4667 39.277,-78.5549 149.752,-75.7333 224.779,-75.7333 v -87.4667 H 18432 m 939.734,0 v 87.4667 c 77.027,0 177.808,-0.4654 215.137,81.0666 19.873,43.4052 18.971,95.2269 19.534,141.8667 0.804,66.7638 1.062,133.6828 1.062,200.5333 v 688 c 0,67.1414 1.469,134.6948 -3.104,201.6 -2.904,42.4982 -6.054,87.2654 -25.971,125.8667 -38.227,74.0901 -140.812,68.7442 -211.992,69.3333 v 86.4 h 616.534 v -86.4 c -67.565,-1.3935 -160.329,3.4333 -198.548,-65.0667 -24.181,-43.3401 -27.638,-96.5578 -29.761,-145.0666 -3.447,-78.7485 -2.091,-157.8745 -2.091,-236.8 v -849.0667 h 13.866 c 2.311,13.0063 10.369,26.2599 15.55,38.4 11.23,26.3105 22.394,52.6453 33.678,78.9334 33.862,78.8984 67.47,157.902 101.333,236.8 108.139,251.9546 215.869,504.0861 323.489,756.2666 26.869,62.9588 53.78,125.8963 80.778,188.8 7.781,18.1286 15.583,36.2471 23.306,54.4 3.398,7.9854 6.16,19.6536 11.727,26.3276 4.162,4.9898 17.56,2.4724 23.473,2.4724 h 60.8 c 5.287,0 17.331,2.2448 21.366,-1.7104 6.084,-5.9607 8.886,-19.3032 12.153,-27.0896 l 25.6,-60.8 c 30.456,-72.5849 61.277,-145.0151 91.733,-217.6 104.933,-250.0833 208.704,-500.8052 316.048,-749.8666 36.012,-83.5563 71.987,-167.3909 106.114,-251.7334 7.523,-18.594 15.55,-37.0122 23.411,-55.4666 5.156,-12.1065 6.456,-21.3318 21.175,-21.3334 v 873.6 217.6 c 0,48.1753 -0.194,104.6854 -26.094,147.2 -39.75,65.2482 -135.4,57.9773 -201.106,60.8 v 86.4 h 726.4 v -86.4 c -72.744,-5.7417 -165.563,2.5549 -203.459,-75.7333 -22.187,-45.8386 -21.608,-101.7558 -21.608,-151.4667 v -203.7333 -659.2 -176 c 0,-50.5396 -0.608,-104.5029 17.521,-152.5333 32.225,-85.3771 127.323,-89.6 205.412,-89.6 v -87.4667 h -398.933 -105.6 c -9.55,0 -32.089,-4.1914 -40.087,1.0964 -3.334,2.2047 -4.767,8.1791 -6.202,11.7036 -4.055,9.961 -8.007,19.9724 -12.219,29.8667 -16.565,38.9036 -32.563,78.1166 -48.373,117.3333 -58.096,144.1029 -119.608,286.8307 -177.704,430.9333 -68.302,169.4172 -140.934,337.0979 -208.854,506.6667 -16.159,40.3422 -33.519,80.2021 -49.707,120.5333 -4.085,10.1802 -9.354,36.1078 -22.187,36.2609 -10.417,0.1245 -11.813,-8.789 -15.148,-17.0609 -7.198,-17.8539 -14.829,-35.5396 -22.173,-53.3333 -31.569,-76.4797 -63.39,-152.8537 -94.958,-229.3334 -91.625,-221.9804 -182.884,-444.1536 -275.802,-665.5999 -27.244,-64.9308 -54.328,-129.9818 -80.875,-195.2 -8.415,-20.6719 -17.178,-41.1987 -25.6,-61.8667 -3.688,-9.0466 -6.607,-21.7987 -12.605,-29.5276 -4.887,-6.2987 -28.483,-2.4724 -36.039,-2.4724 h -108.8 -441.6 m 2391.466,0 v 87.4667 c 74.442,0 180.813,-3.1927 219.767,74.6666 22.523,45.0175 21.781,99.2373 22.371,148.2667 0.706,58.5893 1.062,117.3247 1.062,176 v 704 c 0,64.3625 -0.287,128.7906 -1.062,193.0666 -0.588,48.6974 -0.729,102.2117 -24.871,146.1334 -33.575,61.0854 -118.35,65.0666 -179.933,65.0666 -12.488,0 -24.913,0.9638 -37.334,1.0667 v 86.4 h 1397.334 c 1.821,-42.0399 11.837,-85.263 17.846,-126.9333 11.687,-81.0495 23.021,-162.1506 34.708,-243.2 5.319,-36.8813 14.942,-75.8328 15.713,-113.0667 h -68.267 c -6.213,0 -19.846,-2.5625 -25.056,1.0964 -6.123,4.3 -9.034,22.7932 -11.061,29.8369 -7.066,24.5459 -16.548,48.5896 -25.41,72.5334 -25.613,69.2026 -59.361,139.7617 -119.806,185.0929 -51.361,38.5175 -116.665,52.9185 -179.2,60.406 -113.519,13.5914 -229.178,9.4344 -343.467,9.4344 h -124.8 -30.933 c -3.526,0 -9.398,1.0469 -12.157,-1.7104 -3.869,-3.8685 -1.71,-15.6091 -1.71,-20.6896 v -59.7333 -236.8 -276.2667 -66.1333 c 0,-5.2013 -2.45,-19.087 2.471,-22.3705 3.575,-2.3847 10.495,-1.0962 14.596,-1.0962 h 35.2 134.4 c 77.154,0 156.037,-3.3362 232.533,7.3276 41.321,5.7604 84.489,17.7651 109.962,53.4724 34.819,48.8089 31.905,121.0417 31.905,178.1333 h 94.933 v -594.1333 h -94.933 c 0,59.5313 2.556,137.3776 -38.721,185.6 -37.023,43.2543 -97.054,49.514 -150.079,54.5811 -49.459,4.7263 -99.617,3.0189 -149.334,3.0189 h -222.933 v -470.4 -117.3333 -29.8667 c 0,-3.3083 -0.877,-8.5015 1.71,-11.0895 3.211,-3.2107 11.219,-1.7105 15.357,-1.7105 h 43.733 173.867 c 101.085,0 205.095,-5.4794 305.066,11.2922 53.831,9.0313 108.567,26.4034 146.581,67.7365 53.213,57.8552 69.923,148.3302 79.553,223.9047 h 97.066 l -14.933,-433.0667 H 21763.2 M 2167.4667,2121.5999 v -696.5333 c 30.899,-0.6367 61.9018,-5.006 92.8,-6.3581 109.7302,-4.802 231.0513,-2.7192 326.4,59.3664 91.4042,59.5172 123.7334,164.0235 123.7334,268.0584 0,108.4851 -29.7016,217.8755 -119.4667,286.6822 -67.3208,51.6029 -153.0526,72.9806 -235.7333,83.7515 -29.8743,3.8916 -60.5264,7.6238 -90.6667,7.6238 -32.3766,0 -64.7292,-2.5909 -97.0667,-2.5909 m 1974.4001,-486.4 21.5349,56.5334 39.4666,102.4 134.6511,349.8666 45.2125,117.3333 24.7349,65.0667 h -552.5334 c 3.9466,-22.9229 18.2636,-47.844 27.2807,-69.3333 16.1698,-38.5349 30.7631,-77.731 46.9334,-116.2667 48.0581,-114.5286 92.7143,-230.5614 139.5422,-345.6 16.6221,-40.8343 33.1242,-81.7341 49.4974,-122.6666 4.7726,-11.9318 8.8557,-37.281 23.6797,-37.3334 m 10819.2002,760.5333 c -44.657,353.2365 -190.961,696.6307 -407.839,978.1333 -50.417,65.4417 -104.677,127.0125 -161.719,186.6667 -14.639,15.3094 -29.851,29.8336 -44.842,44.8 -7.649,7.6365 -16.888,18.906 -26.667,23.4667 -11.562,-41.1365 -17.819,-83.8555 -30.044,-124.8 -6.098,-20.4235 -19.483,-38.7912 -25.72,-59.7334 -12.991,-43.6151 -12.343,-91.606 -8.054,-136.5333 3.622,-37.9476 14.789,-75.3815 24.966,-112 14.983,-53.9104 31.008,-107.4786 47.087,-161.0666 6.242,-20.8068 14.722,-41.6735 19.193,-62.9334 7.198,-34.2156 7.772,-73.9078 7.772,-108.8 -13.888,4.0011 -27.563,13.5185 -40.533,20.0031 -28.022,14.0112 -56.069,27.9443 -84.267,41.5878 -89.152,43.1357 -179.577,84.1555 -270.933,122.4898 -116.051,48.6969 -233.073,96.3987 -352,137.6855 -184.351,64 -374.843,115.545 -565.333,157.6197 -86.004,18.9961 -172.296,36.4388 -259.2,50.8331 -39.148,6.4841 -80.835,17.2281 -120.534,18.0477 11.694,13.3833 25.339,22.6632 31.201,40.5333 7.79,23.7451 -0.141,50.8161 -7.734,73.6 -14.769,44.3182 -42.604,91.938 -40.492,139.7333 1.71,38.674 43.691,53.5089 75.692,59.2808 8.137,1.4674 16.319,2.6763 24.533,3.5989 3.038,0.3414 8.397,0.1521 10.476,2.8266 4.279,5.5052 1.902,25.6815 0.938,32.4271 -6.639,46.4273 -61.737,44.6593 -96.747,37.5455 -34.365,-6.9825 -67.08,-21.3526 -98.133,-37.2705 -45.892,-23.524 -92.308,-53.2263 -124.575,-94.1417 -8.879,-11.2576 -17.043,-23.7375 -21.881,-37.3333 -25.309,-71.1355 45.122,-128.9563 45.122,-197.3334 -26.607,0.5493 -53.445,4.486 -80,6.3047 -54.988,3.7656 -110.23,6.1966 -165.333,7.5464 -232.559,5.6966 -467.024,-14.3766 -694.4,-64.5985 -75.995,-16.7854 -151.932,-37.6708 -225.067,-64.3958 -18.524,-6.7693 -37.071,-13.3995 -55.466,-20.525 -7.914,-3.0651 -18.763,-5.3398 -25.254,-10.9969 -12.931,-11.2708 -22.664,-31.9177 -31.732,-46.4015 -16.351,-26.1177 -34.121,-51.7026 -48.614,-78.9334 24.059,6.9313 47.348,22.5868 70.4,32.6141 53.362,23.212 107.755,44.2375 163.2,61.9521 166.412,53.1693 338.494,81.7401 512,98.3195 342.234,32.7024 691.799,-1.8685 1028.266,-69.1523 224.826,-44.9589 450.028,-102.3076 666.667,-177.8084 292.746,-102.0249 578.666,-229.7729 851.2,-377.1874 122.06,-66.023 241.142,-137.5162 357.333,-213.3714 41.436,-27.0505 82.136,-55.2271 122.667,-83.6008 18.145,-12.7026 35.561,-27.07 54.4,-38.6987 z"
       id="path1" />
  </g>
</svg>
